# xmcd
# 
# Track frame offsets:
#     150
#     27685
#     47450
#     74337
#     107237
#     132725
#     163625
#     182012
# 
# Disc length: 2756
# 
# Revision: 1
# Processed by: cddbd v1.5.2PL0 Copyright (c) Steve Scherf et al.
# Submitted via: BonkEnc v1.0.6
# 
DISCID=730ac208
DTITLE=Maynard Ferguson - Carnival
DYEAR=1978
DGENRE=Fusion
TTITLE0=M.F. Carnival
TTITLE1=Fantasy
TTITLE2=Theme from "Battlestar Galactica"
TTITLE3=Stella by Starlight
TTITLE4=Birdland
TTITLE5=Baker Street
TTITLE6=How Ya Doin' Baby?
TTITLE7=Over the Rainbow
EXTD=
EXTT0=
EXTT1=
EXTT2=
EXTT3=
EXTT4=
EXTT5=
EXTT6=
EXTT7=
PLAYORDER=
